<?xml version="1.0" standalone="no"?>
<!DOCTYPE svg PUBLIC "-//W3C//DTD SVG 20010904//EN"
 "http://www.w3.org/TR/2001/REC-SVG-20010904/DTD/svg10.dtd">
<svg version="1.0" xmlns="http://www.w3.org/2000/svg"
 width="1280.000000pt" height="1280.000000pt" viewBox="0 0 1280.000000 1280.000000"
 preserveAspectRatio="xMidYMid meet">
<metadata>
Created by potrace 1.16, written by Peter Selinger 2001-2019
</metadata>
<g transform="translate(0.000000,1280.000000) scale(0.100000,-0.100000)"
fill="#000000" stroke="none">
<path d="M6005 12794 c-22 -2 -98 -9 -170 -14 -1226 -100 -2447 -584 -3412
-1352 -217 -173 -330 -274 -554 -497 -223 -224 -324 -337 -497 -554 -686 -862
-1145 -1925 -1306 -3022 -52 -356 -66 -563 -66 -955 0 -392 14 -599 66 -955
261 -1785 1282 -3390 2791 -4387 895 -592 1855 -927 2978 -1040 208 -21 965
-18 1180 5 834 88 1541 291 2255 647 490 244 907 522 1340 894 135 116 510
491 626 626 578 673 986 1395 1254 2215 150 461 238 892 292 1430 18 177 18
953 0 1130 -87 864 -287 1574 -652 2305 -243 489 -522 907 -894 1340 -114 134
-489 508 -626 626 -577 496 -1196 869 -1889 1139 -422 164 -922 295 -1376 360
-346 50 -450 57 -885 60 -228 1 -433 1 -455 -1z m980 -698 c533 -61 977 -165
1424 -332 997 -373 1863 -1010 2519 -1853 605 -776 1005 -1729 1141 -2711 41
-297 46 -387 46 -800 0 -263 -5 -449 -13 -530 -80 -766 -261 -1397 -588 -2050
-275 -549 -623 -1029 -1064 -1470 -873 -874 -2000 -1440 -3215 -1614 -350 -51
-884 -71 -1231 -47 -1390 97 -2671 679 -3655 1660 -808 807 -1350 1827 -1568
2951 -71 367 -92 583 -98 1005 -5 376 6 597 48 893 302 2165 1801 3959 3880
4643 411 135 901 232 1349 268 174 14 869 5 1025 -13z"/>
<path d="M6745 8171 c-27 -13 -295 -274 -852 -832 -803 -806 -812 -815 -828
-871 -18 -62 -13 -111 14 -165 24 -47 1605 -1639 1660 -1671 101 -59 238 -25
301 75 39 61 46 116 25 190 -17 58 -20 61 -741 783 l-724 725 710 710 c505
505 717 723 732 754 57 118 -8 273 -131 310 -56 16 -120 13 -166 -8z"/>
</g>
</svg>
