<?xml version="1.0" standalone="no"?>
<!DOCTYPE svg PUBLIC "-//W3C//DTD SVG 20010904//EN"
 "http://www.w3.org/TR/2001/REC-SVG-20010904/DTD/svg10.dtd">
<svg version="1.0" xmlns="http://www.w3.org/2000/svg"
 width="1280.000000pt" height="1280.000000pt" viewBox="0 0 1280.000000 1280.000000"
 preserveAspectRatio="xMidYMid meet">
<metadata>
Created by potrace 1.16, written by Peter Selinger 2001-2019
</metadata>
<g transform="translate(0.000000,1280.000000) scale(0.100000,-0.100000)"
fill="#000000" stroke="none">
<path d="M6760 8177 c-47 -14 -1650 -1610 -1681 -1674 -25 -51 -27 -135 -5
-187 20 -47 1600 -1645 1666 -1684 64 -38 156 -38 221 0 103 61 143 188 92
293 -8 17 -340 355 -736 752 l-722 723 721 722 c582 583 724 730 734 761 7 22
10 68 8 103 -5 82 -41 136 -117 176 -57 30 -116 35 -181 15z"/>
</g>
</svg>
