<svg xmlns="http://www.w3.org/2000/svg" width="16" height="16" fill="none" viewBox="0 0 16 16"><g clip-path="url(#a)" opacity=".5"><path fill="#2D3440" fill-rule="evenodd" d="M1.61513 1.61544c.18056-.18055.42544-.28198.68077-.28198h11.407c.2417 0 .3402.02852.3947.0526.0577.0255.1305.07387.286.22938.2072.2072.282.43225.282.68077V13.6648c-.0007.0124-.001.0248-.001.0373 0 .2554-.1014.5003-.282.6808-.1805.1806-.4254.282-.6808.282H2.2959c-.25533 0-.50021-.1014-.68077-.282-.18055-.1805-.28198-.4254-.28198-.6808V2.29621c0-.25534.10143-.50022.28198-.68077ZM15.8381 14.5438c-.1144.2903-.2878.557-.5127.7819-.4306.4306-1.0146.6725-1.6236.6725H2.2959c-.60896 0-1.19297-.2419-1.623575-.6725-.4306-.4306-.6725081-1.0146-.6725081-1.6236V2.29621c0-.60896.2419081-1.19298.6725081-1.62358.225989-.225989.494235-.400005.786165-.514355.11624-.0986473.26674-.15815293.43114-.15815293H13.7029c.3374 0 .6429.03790773.9336.16635993.2875.127032.5011.317281.69.506151.4815.481557.6725 1.057377.6725 1.623577V14.1095c0 .1659-.0606.3176-.1609.4343Z" clip-rule="evenodd"/></g><defs><clipPath id="a"><path fill="#fff" d="M0 0h16v16H0z"/></clipPath></defs></svg>